<svg width="91" height="26" viewBox="0 0 91 26" fill="none" xmlns="http://www.w3.org/2000/svg">
<path d="M27 13.5C27 6.59644 32.5964 1 39.5 1H91C91 14.8071 79.8071 26 66 26H39.5C32.5964 26 27 20.4036 27 13.5Z" fill="#00ADB5" fill-opacity="0.75"/>
<path d="M1.68 5.648C1.68 5.344 1.808 5.192 2.064 5.192H13.968C14.208 5.192 14.328 5.328 14.328 5.6L14.304 7.76C14.304 8.096 14.144 8.264 13.824 8.264H6.336C6.032 8.264 5.88 8.392 5.88 8.648V12.368C5.88 12.624 6 12.752 6.24 12.752H11.448C11.704 12.752 11.832 12.88 11.832 13.136V15.416C11.832 15.64 11.712 15.752 11.472 15.752H6.216C5.992 15.752 5.88 15.856 5.88 16.064V22.448C5.88 22.816 5.672 23 5.256 23H2.208C2 23 1.856 22.96 1.776 22.88C1.712 22.8 1.68 22.672 1.68 22.496V5.648ZM16.8206 5.648C16.8206 5.344 16.9486 5.192 17.2046 5.192H29.3006C29.5406 5.192 29.6606 5.328 29.6606 5.6L29.6366 7.76C29.6366 8.096 29.4686 8.264 29.1326 8.264H21.4766C21.1726 8.264 21.0206 8.392 21.0206 8.648V12.128C21.0206 12.4 21.1406 12.536 21.3806 12.536H26.4686C26.7406 12.536 26.8766 12.664 26.8766 12.92V15.224C26.8766 15.32 26.8446 15.4 26.7806 15.464C26.7326 15.528 26.6366 15.56 26.4926 15.56H21.3566C21.1326 15.56 21.0206 15.656 21.0206 15.848V19.616C21.0206 19.824 21.1086 19.928 21.2846 19.928H29.4926C29.7806 19.928 29.9246 20.048 29.9246 20.288V22.568C29.9246 22.696 29.8846 22.8 29.8046 22.88C29.7406 22.96 29.6206 23 29.4446 23H17.3486C16.9966 23 16.8206 22.832 16.8206 22.496V5.648ZM46.9718 22.352C47.0358 22.528 47.0278 22.68 46.9478 22.808C46.8838 22.936 46.7718 23 46.6118 23H43.0838C42.8118 23 42.6358 22.856 42.5558 22.568L39.9638 15.848C39.8678 15.624 39.6438 15.512 39.2918 15.512H37.0117C36.8997 15.512 36.8198 15.544 36.7718 15.608C36.7398 15.672 36.7238 15.728 36.7238 15.776V22.424C36.7238 22.808 36.5078 23 36.0758 23H33.0278C32.8358 23 32.6998 22.96 32.6198 22.88C32.5558 22.8 32.5238 22.68 32.5238 22.52V5.648C32.5238 5.344 32.6518 5.192 32.9078 5.192H40.3958C42.5398 5.192 44.2038 5.616 45.3878 6.464C46.5878 7.312 47.1878 8.52 47.1878 10.088C47.1878 10.904 47.0358 11.632 46.7318 12.272C46.4278 12.912 46.0278 13.448 45.5318 13.88C45.0358 14.296 44.4918 14.608 43.8998 14.816C43.7558 14.864 43.7238 14.984 43.8038 15.176L46.9718 22.352ZM40.0118 12.68C40.9238 12.68 41.6198 12.488 42.0998 12.104C42.5958 11.704 42.8438 11.128 42.8438 10.376C42.8438 9.592 42.5958 9 42.0998 8.6C41.6038 8.2 40.9478 8 40.1318 8H37.1797C36.8758 8 36.7238 8.136 36.7238 8.408V12.272C36.7238 12.544 36.8358 12.68 37.0598 12.68H40.0118ZM63.9741 5.192C64.1341 5.192 64.2381 5.24 64.2861 5.336C64.3341 5.416 64.3181 5.528 64.2381 5.672L58.5981 14.912C58.5021 15.056 58.4461 15.208 58.4301 15.368C58.4141 15.512 58.4061 15.784 58.4061 16.184V22.424C58.4061 22.808 58.1821 23 57.7341 23H54.7341C54.5261 23 54.3821 22.96 54.3021 22.88C54.2381 22.8 54.2061 22.672 54.2061 22.496V16.04C54.2061 15.816 54.1821 15.648 54.1341 15.536C54.0861 15.424 54.0141 15.296 53.9181 15.152L48.2301 5.744C48.1341 5.584 48.1181 5.456 48.1821 5.36C48.2461 5.248 48.3821 5.192 48.5901 5.192H52.1901C52.3981 5.192 52.5421 5.224 52.6221 5.288C52.7021 5.352 52.7901 5.464 52.8861 5.624L56.4381 11.864C56.5341 12.024 56.6141 12.112 56.6781 12.128C56.7421 12.128 56.8141 12.056 56.8941 11.912L60.3981 5.624C60.4941 5.448 60.5821 5.336 60.6621 5.288C60.7581 5.224 60.9021 5.192 61.0941 5.192H63.9741Z" fill="#EEEEEE"/>
</svg>
