<svg width="32" height="32" viewBox="0 0 32 32" fill="none" xmlns="http://www.w3.org/2000/svg">
<path d="M4.78101 22.746L16.232 2.914L17.26 3.507L5.81001 23.34L4.78101 22.746Z" fill="#E10098"/>
<path d="M4.54498 21.162H27.447V22.349H4.54498V21.162Z" fill="#E10098"/>
<path d="M4.99902 21.828L5.59202 20.8L17.047 27.414L16.453 28.442L4.99902 21.828ZM14.95 4.59L15.544 3.563L26.999 10.177L26.405 11.205L14.95 4.59Z" fill="#E10098"/>
<path d="M5.00201 10.174L16.456 3.56L17.05 4.588L5.59501 11.202L5.00201 10.174Z" fill="#E10098"/>
<path d="M14.743 3.508L15.771 2.914L27.221 22.747L26.194 23.34L14.743 3.508ZM5.45398 9.386H6.64098V22.614H5.45398V9.386Z" fill="#E10098"/>
<path d="M25.36 9.386H26.547V22.614H25.36V9.386Z" fill="#E10098"/>
<path d="M15.734 27.042L25.696 21.29L26.215 22.188L16.252 27.94L15.734 27.042Z" fill="#E10098"/>
<path d="M28.12 23C27.8733 23.4288 27.5049 23.7747 27.0614 23.994C26.618 24.2133 26.1195 24.2961 25.629 24.2319C25.1385 24.1677 24.678 23.9595 24.3059 23.6335C23.9338 23.3076 23.6667 22.8785 23.5386 22.4007C23.4104 21.9229 23.4269 21.4179 23.5859 20.9494C23.7449 20.481 24.0393 20.0703 24.4318 19.7692C24.8244 19.4682 25.2974 19.2904 25.7911 19.2583C26.2847 19.2262 26.7768 19.3413 27.205 19.589C27.7781 19.9205 28.1963 20.4658 28.3678 21.1053C28.5394 21.7448 28.4502 22.4262 28.12 23V23ZM8.20001 11.5C7.95326 11.9288 7.58486 12.2747 7.14143 12.494C6.698 12.7133 6.19948 12.7961 5.70896 12.7319C5.21845 12.6677 4.758 12.4595 4.38589 12.1335C4.01378 11.8076 3.74674 11.3785 3.61857 10.9007C3.4904 10.4229 3.50686 9.91786 3.66588 9.44943C3.82489 8.98099 4.1193 8.57026 4.51185 8.26922C4.9044 7.96818 5.37743 7.79036 5.87108 7.75828C6.36473 7.7262 6.8568 7.8413 7.28501 8.089C7.85811 8.42051 8.2763 8.96583 8.44784 9.60529C8.61937 10.2448 8.53025 10.9262 8.20001 11.5ZM3.88001 23C3.63231 22.5718 3.51721 22.0797 3.54929 21.5861C3.58137 21.0924 3.75918 20.6194 4.06022 20.2268C4.36126 19.8343 4.772 19.5399 5.24043 19.3809C5.70887 19.2219 6.21395 19.2054 6.69175 19.3336C7.16955 19.4617 7.59858 19.7288 7.92455 20.1009C8.25051 20.473 8.45875 20.9334 8.52291 21.424C8.58707 21.9145 8.50427 22.413 8.28498 22.8564C8.06568 23.2998 7.71977 23.6683 7.29101 23.915C6.71717 24.2452 6.03577 24.3344 5.3963 24.1628C4.75684 23.9913 4.21152 23.5731 3.88001 23V23ZM23.8 11.5C23.5523 11.0718 23.4372 10.5797 23.4693 10.0861C23.5014 9.59242 23.6792 9.11939 23.9802 8.72684C24.2813 8.33429 24.692 8.03988 25.1604 7.88087C25.6289 7.72185 26.134 7.70539 26.6118 7.83356C27.0896 7.96173 27.5186 8.22877 27.8445 8.60088C28.1705 8.97299 28.3788 9.43344 28.4429 9.92395C28.5071 10.4145 28.4243 10.913 28.205 11.3564C27.9857 11.7998 27.6398 12.1683 27.211 12.415C26.6372 12.7452 25.9558 12.8344 25.3163 12.6628C24.6768 12.4913 24.1315 12.0731 23.8 11.5V11.5ZM16 30C15.5056 30 15.0222 29.8534 14.6111 29.5787C14.2 29.304 13.8795 28.9135 13.6903 28.4567C13.5011 27.9999 13.4516 27.4972 13.548 27.0123C13.6445 26.5273 13.8826 26.0819 14.2322 25.7322C14.5819 25.3826 15.0273 25.1445 15.5123 25.048C15.9972 24.9516 16.4999 25.0011 16.9567 25.1903C17.4135 25.3795 17.804 25.6999 18.0787 26.1111C18.3534 26.5222 18.5 27.0055 18.5 27.5C18.5009 27.8286 18.4369 28.1541 18.3116 28.4578C18.1863 28.7615 18.0022 29.0375 17.7698 29.2698C17.5375 29.5022 17.2615 29.6863 16.9578 29.8116C16.6541 29.9369 16.3286 30.0009 16 30V30ZM16 6.991C15.5056 6.991 15.0222 6.84438 14.6111 6.56967C14.2 6.29497 13.8795 5.90452 13.6903 5.44771C13.5011 4.99089 13.4516 4.48823 13.548 4.00327C13.6445 3.51832 13.8826 3.07286 14.2322 2.72323C14.5819 2.3736 15.0273 2.1355 15.5123 2.03904C15.9972 1.94257 16.4999 1.99208 16.9567 2.1813C17.4135 2.37052 17.804 2.69095 18.0787 3.10207C18.3534 3.5132 18.5 3.99655 18.5 4.491C18.5009 4.81956 18.4369 5.14507 18.3116 5.4488C18.1863 5.75253 18.0022 6.0285 17.7698 6.26083C17.5375 6.49316 17.2615 6.67727 16.9578 6.80258C16.6541 6.92789 16.3286 6.99192 16 6.991" fill="#E10098"/>
</svg>
